<?xml version="1.0" encoding="utf-8"?>
<svg version="1.1" xmlns:xlink="http://www.w3.org/1999/xlink" width="62px" height="58px" xmlns="http://www.w3.org/2000/svg">
  <g transform="matrix(1 0 0 1 -164 -389 )">
    <path d="M 25.8333333333334 44.9348958333333  C 26.5329861111111 44.9348958333333  27.1384548611111 44.6957465277778  27.6497395833334 44.2174479166667  L 39.832362188841 32.8208009631273  L 52.43359375 21.0325520833333  C 52.9448784722222 20.5542534722222  53.2005208333334 19.9878472222222  53.2005208333334 19.3333333333333  C 53.2005208333334 18.6788194444444  52.9448784722222 18.1124131944444  52.43359375 17.6341145833333  L 48.31640625 13.7825520833333  C 47.8051215277778 13.3042534722222  47.1996527777778 13.0651041666667  46.5 13.0651041666667  C 45.8003472222222 13.0651041666667  45.1948784722222 13.3042534722222  44.68359375 13.7825520833333  L 25.8333333333334 31.4166666666667  L 17.31640625 23.44921875  C 16.8051215277778 22.9709201388889  16.1996527777778 22.7317708333333  15.5 22.7317708333333  C 14.8003472222222 22.7317708333333  14.1948784722222 22.9709201388889  13.68359375 23.44921875  L 9.56640625 27.30078125  C 9.05512152777783 27.7790798611111  8.79947916666663 28.3454861111111  8.79947916666663 29  C 8.79947916666663 29.6545138888889  9.05512152777783 30.2209201388889  9.56640625 30.69921875  L 24.0169270833334 44.2174479166667  C 24.5282118055555 44.6957465277778  25.1336805555555 44.9348958333333  25.8333333333334 44.9348958333333  Z M 58.5891927083334 3.19075520833331  C 60.8630642361111 5.31792534722217  62 7.87934027777783  62 10.875  L 62 47.125  C 62 50.1206597222222  60.8630642361111 52.6820746527778  58.5891927083334 54.8092447916667  C 56.3153211805555 56.9364149305556  53.5772569444445 58  50.375 58  L 11.625 58  C 8.42274305555554 58  5.68467881944446 56.9364149305556  3.41080729166663 54.8092447916667  C 1.13693576388886 52.6820746527778  0 50.1206597222222  0 47.125  L 0 10.875  C 0 7.87934027777783  1.13693576388886 5.31792534722217  3.41080729166663 3.19075520833331  C 5.68467881944446 1.0635850694444  8.42274305555554 0  11.625 0  L 50.375 0  C 53.5772569444445 0  56.3153211805555 1.0635850694444  58.5891927083334 3.19075520833331  Z " fill-rule="nonzero" fill="#339900" stroke="none" transform="matrix(1 0 0 1 164 389 )" />
  </g>
</svg>