<?xml version="1.0" encoding="utf-8"?>
<svg version="1.1" xmlns:xlink="http://www.w3.org/1999/xlink" width="108px" height="108px" xmlns="http://www.w3.org/2000/svg">
  <g transform="matrix(1 0 0 1 -134 -83 )">
    <path d="M 188 83  C 218.24 83  242 106.76  242 137  C 242 167.24  218.24 191  188 191  C 157.76 191  134 167.24  134 137  C 134 106.76  157.76 83  188 83  Z " fill-rule="nonzero" fill="#ffffff" stroke="none" />
    <path d="M 188 83.5  C 217.96 83.5  241.5 107.04  241.5 137  C 241.5 166.96  217.96 190.5  188 190.5  C 158.04 190.5  134.5 166.96  134.5 137  C 134.5 107.04  158.04 83.5  188 83.5  Z " stroke-width="1" stroke="#797979" fill="none" />
  </g>
</svg>