<?xml version="1.0" encoding="utf-8"?>
<svg version="1.1" xmlns:xlink="http://www.w3.org/1999/xlink" width="12px" height="12px" viewBox="115 283  12 12" xmlns="http://www.w3.org/2000/svg">
  <path d="M 121 283  C 124.36 283  127 285.64  127 289  C 127 292.36  124.36 295  121 295  C 117.64 295  115 292.36  115 289  C 115 285.64  117.64 283  121 283  Z " fill-rule="nonzero" fill="#f0f0f0" stroke="none" />
  <path d="M 121 283.5  C 124.08 283.5  126.5 285.92  126.5 289  C 126.5 292.08  124.08 294.5  121 294.5  C 117.92 294.5  115.5 292.08  115.5 289  C 115.5 285.92  117.92 283.5  121 283.5  Z " stroke-width="1" stroke="#797979" fill="none" />
  <path d="M 121 292  C 119.32 292  118 290.68  118 289  C 118 287.32  119.32 286  121 286  C 122.68 286  124 287.32  124 289  C 124 290.68  122.68 292  121 292  " fill-rule="nonzero" fill="#797979" stroke="none" />
</svg>