<?xml version="1.0" encoding="utf-8"?>
<svg version="1.1" xmlns:xlink="http://www.w3.org/1999/xlink" width="12px" height="12px" viewBox="225 584  12 12" xmlns="http://www.w3.org/2000/svg">
  <path d="M 231 584  C 234.36 584  237 586.64  237 590  C 237 593.36  234.36 596  231 596  C 227.64 596  225 593.36  225 590  C 225 586.64  227.64 584  231 584  Z " fill-rule="nonzero" fill="#ffffff" stroke="none" />
  <path d="M 231 584.5  C 234.08 584.5  236.5 586.92  236.5 590  C 236.5 593.08  234.08 595.5  231 595.5  C 227.92 595.5  225.5 593.08  225.5 590  C 225.5 586.92  227.92 584.5  231 584.5  Z " stroke-width="1" stroke="#797979" fill="none" />
  <path d="M 231 593  C 229.32 593  228 591.68  228 590  C 228 588.32  229.32 587  231 587  C 232.68 587  234 588.32  234 590  C 234 591.68  232.68 593  231 593  " fill-rule="nonzero" fill="#797979" stroke="none" />
</svg>