<?xml version="1.0" encoding="utf-8"?>
<svg version="1.1" xmlns:xlink="http://www.w3.org/1999/xlink" width="20px" height="20px" xmlns="http://www.w3.org/2000/svg">
  <g transform="matrix(1 0 0 1 -39 -99 )">
    <path d="M 49 99  C 54.6 99  59 103.4  59 109  C 59 114.6  54.6 119  49 119  C 43.4 119  39 114.6  39 109  C 39 103.4  43.4 99  49 99  Z " fill-rule="nonzero" fill="#00cc00" stroke="none" />
    <path d="M 49 99.5  C 54.32 99.5  58.5 103.68  58.5 109  C 58.5 114.32  54.32 118.5  49 118.5  C 43.68 118.5  39.5 114.32  39.5 109  C 39.5 103.68  43.68 99.5  49 99.5  Z " stroke-width="1" stroke="#797979" fill="none" />
  </g>
</svg>