<?xml version="1.0" encoding="utf-8"?>
<svg version="1.1" xmlns:xlink="http://www.w3.org/1999/xlink" width="20px" height="20px" xmlns="http://www.w3.org/2000/svg">
  <g transform="matrix(1 0 0 1 -39 -149 )">
    <path d="M 49 149  C 54.6 149  59 153.4  59 159  C 59 164.6  54.6 169  49 169  C 43.4 169  39 164.6  39 159  C 39 153.4  43.4 149  49 149  Z " fill-rule="nonzero" fill="#009999" stroke="none" />
    <path d="M 49 149.5  C 54.32 149.5  58.5 153.68  58.5 159  C 58.5 164.32  54.32 168.5  49 168.5  C 43.68 168.5  39.5 164.32  39.5 159  C 39.5 153.68  43.68 149.5  49 149.5  Z " stroke-width="1" stroke="#797979" fill="none" />
  </g>
</svg>